<svg id="Layer_1" data-name="Layer 1" xmlns="http://www.w3.org/2000/svg" viewBox="0 0 48 48"><defs><style>.cls-1{fill:#fff;}</style></defs><path class="cls-1" d="M39.65,43.05a28.6,28.6,0,0,1-12.22-2.9,40.15,40.15,0,0,1-11.38-8.1A39.83,39.83,0,0,1,7.88,20.6,28.68,28.68,0,0,1,5,8.4,3.42,3.42,0,0,1,6,5.92a3.3,3.3,0,0,1,2.45-1h6.75a3.88,3.88,0,0,1,2.55.82A3.93,3.93,0,0,1,19,8.1l1.35,5.3a7.11,7.11,0,0,1-.17,2.35,3.33,3.33,0,0,1-1,1.7l-5.1,4.7a22.94,22.94,0,0,0,2.33,3.42,30.88,30.88,0,0,0,2.87,3.08,24.75,24.75,0,0,0,3.35,3.07A27.28,27.28,0,0,0,26.05,34L31,29a4.06,4.06,0,0,1,1.88-1.23,4.44,4.44,0,0,1,2.32,0L40,28.85a4.64,4.64,0,0,1,2.33,1.45,3.8,3.8,0,0,1,.82,2.5v6.8a3.3,3.3,0,0,1-1,2.45A3.37,3.37,0,0,1,39.65,43.05Z"/></svg>